<?xml version="1.0" encoding="UTF-8"?>
<!DOCTYPE svg PUBLIC "-//W3C//DTD SVG 1.1//EN" "http://www.w3.org/Graphics/SVG/1.1/DTD/svg11.dtd">
<!-- Creator: CorelDRAW 2017 -->
<svg xmlns="http://www.w3.org/2000/svg" xml:space="preserve" width="82.3697mm" height="16.0364mm" version="1.1" style="shape-rendering:geometricPrecision; text-rendering:geometricPrecision; image-rendering:optimizeQuality; fill-rule:evenodd; clip-rule:evenodd"
viewBox="0 0 823698 160364"
 xmlns:xlink="http://www.w3.org/1999/xlink">
 <defs>
  <style type="text/css">
   <![CDATA[
    .fil2 {fill:#EF7F1A}
    .fil0 {fill:#2B2A29;fill-rule:nonzero}
    .fil1 {fill:#FFED00;fill-rule:nonzero}
    .fil3 {fill:url(#id0)}
   ]]>
  </style>
  <linearGradient id="id0" gradientUnits="userSpaceOnUse" x1="687307" y1="152325" x2="742650" y2="65117">
   <stop offset="0" style="stop-opacity:1; stop-color:#FFED00"/>
   <stop offset="1" style="stop-opacity:1; stop-color:#EF7F1A"/>
  </linearGradient>
 </defs>
 <g id="Слой_x0020_1">
  <metadata id="CorelCorpID_0Corel-Layer"/>
  <g id="_2006419885744">
   <path class="fil0" d="M24442 37050l45955 0c6050,0 9075,2245 9075,6733l-1025 5561c-879,5855 -4683,8782 -11415,8782l-30735 0 -2635 16099 36442 0c2440,0 4879,-463 7318,-1391 2439,-926 4708,-2268 6806,-4024 2098,-1756 3952,-3854 5562,-6294 1609,-2439 2804,-5171 3585,-8195l2049 -12587c98,-2928 -244,-5610 -1024,-8049 -781,-2440 -1927,-4538 -3440,-6294 -1512,-1757 -3341,-3098 -5488,-4025 -2146,-927 -4439,-1390 -6879,-1390l-67470 0 -11123 68495 15807 0 8635 -53421zm84886 -146l61469 0c6050,0 9124,2245 9221,6732l-1318 7757c-585,2830 -1853,5074 -3804,6733 -1952,1659 -4196,2488 -6732,2488l-12880 0 -2488 13757 17855 16100 21368 0 -18001 -16392c2146,-391 4317,-1147 6512,-2269 2196,-1122 4196,-2537 6001,-4244 1805,-1707 3366,-3707 4683,-6001 1317,-2293 2171,-4805 2562,-7537l2048 -12440c391,-2928 220,-5586 -512,-7977 -732,-2391 -1878,-4464 -3439,-6220 -1561,-1757 -3464,-3098 -5708,-4025 -2244,-927 -4586,-1390 -7025,-1390l-67324 0 -2488 14928zm182066 38931l6147 -38785c-194,-4391 -1682,-8000 -4463,-10830 -2781,-2829 -6952,-4244 -12513,-4244l-48883 0c-5562,0 -10246,1463 -14050,4390 -3806,2928 -6489,6586 -8051,10977l-6000 38345c-97,4391 1171,7953 3805,10685 2634,2732 7025,4098 13172,4098l48883 0c5562,0 10221,-1342 13978,-4025 3756,-2683 6414,-6220 7975,-10611zm-24587 0l-38199 0c-6147,0 -8781,-2683 -7903,-8050l3513 -23417c975,-4976 4585,-7464 10829,-7464l37760 0c5952,0 8440,3367 7465,10099l-3220 19173c-1073,6439 -4488,9659 -10245,9659zm140649 -39077l-48883 53420 -31906 -53420 -8635 53713 -15953 0 11123 -68495 24881 0 24734 41857 38199 -41857 24881 0 -11124 68495 -15953 0 8636 -53713zm100253 38784l-50346 0c-1952,0 -3611,-97 -4976,-293 -1367,-194 -2440,-633 -3221,-1317 -780,-683 -1268,-1659 -1463,-2926 -195,-1269 -146,-2928 146,-4977l7172 -44053 -15953 0 -8196 49908c-878,5854 171,10415 3146,13683 2976,3269 7245,4904 12807,4904l58542 0 2342 -14929zm26930 14929l-16100 0 11123 -68495 16100 0 -11123 68495zm48151 0l15807 0 8634 -53567 11123 0c2928,0 5147,585 6660,1756 1512,1171 2073,2879 1683,5123l-1171 7464 15807 0 2048 -13172c391,-4488 -463,-8244 -2561,-11270 -2097,-3024 -5195,-4634 -9294,-4829l-58688 0c-3903,195 -7342,1732 -10318,4610 -2976,2878 -5050,6659 -6221,11342l-2048 13319 15806 0 1025 -6586c780,-5171 3951,-7757 9513,-7757l10830 0 -8635 53567z"/>
   <path class="fil1" d="M192029 125628l9 -54c150,-915 -27,-1542 -525,-1880 -498,-339 -1718,-508 -3667,-508l-3549 0c-2081,0 -3454,252 -4121,750 -666,499 -1133,1555 -1397,3169l-455 2772c-236,1441 -68,2425 508,2960 571,535 1830,804 3779,804l3521 0c1752,0 2986,-160 3696,-475 715,-316 1134,-864 1261,-1638 18,-110 29,-288 33,-535 4,-27 8,-50 11,-68l-7167 0 661 -4034 13506 0 -1073 6549c-309,1880 -1222,3215 -2743,4007 -1515,791 -4000,1189 -7449,1189l-6778 0c-2081,0 -3600,-110 -4555,-334 -951,-224 -1730,-604 -2328,-1143 -702,-632 -1159,-1414 -1373,-2338 -214,-928 -206,-2094 26,-3507l892 -5443c469,-2859 1472,-4853 3011,-5983 1539,-1129 4088,-1696 7651,-1696l6805 0c2201,0 3804,96 4819,293 1010,196 1779,530 2302,992 543,485 898,1134 1067,1948 163,819 146,1844 -56,3078 -48,293 -90,522 -122,682 -26,160 -58,306 -90,443l-6110 0zm97697 -2223l-9688 0 -800 4885 9687 0c809,0 1413,-191 1799,-571 387,-380 665,-1066 827,-2059 129,-786 48,-1358 -240,-1719 -289,-357 -817,-536 -1585,-536zm1038 -4966c3165,0 5237,471 6227,1409 990,937 1281,2647 873,5131 -282,1725 -748,3005 -1394,3846 -644,837 -1592,1400 -2833,1688 1010,252 1730,691 2151,1326 423,636 554,1455 388,2466l-669 4084 -6097 0 498 -3042c129,-786 35,-1326 -288,-1618 -322,-298 -1030,-445 -2118,-445l-9083 0 -836 5105 -6120 0 3270 -19950 16031 0zm89649 20197c-2333,0 -4022,-105 -5067,-315 -1049,-211 -1868,-572 -2461,-1080 -675,-572 -1105,-1322 -1297,-2245 -187,-929 -154,-2155 96,-3682l891 -5439c274,-1668 660,-2995 1158,-3969 503,-974 1183,-1748 2045,-2319 751,-503 1701,-860 2847,-1075 1147,-215 2852,-320 5111,-320l7172 0c2268,0 3948,105 5034,320 1084,215 1917,576 2494,1075 649,562 1067,1331 1251,2305 182,978 152,2223 -97,3746l-911 5552c-252,1541 -631,2790 -1131,3750 -501,961 -1171,1729 -2006,2301 -751,508 -1697,869 -2829,1080 -1132,210 -2851,315 -5156,315l-7144 0zm2465 -4995l3874 0c2154,0 3629,-269 4422,-809 798,-540 1314,-1542 1554,-3005l463 -2826c240,-1464 53,-2465 -568,-3005 -616,-540 -2003,-810 -4157,-810l-3897 0c-2200,0 -3686,275 -4461,819 -771,544 -1283,1577 -1534,3106l-454 2771c-235,1436 -35,2420 595,2955 631,535 2018,804 4163,804zm92950 -15202l6092 0 -1939 11827c-221,1349 -63,2255 475,2712 537,462 1831,691 3884,691l3458 0c1710,0 2893,-242 3554,-732 661,-485 1095,-1376 1308,-2671l1938 -11827 6092 0 -2248 13716c-386,2351 -1290,4020 -2713,5004 -1429,983 -3691,1477 -6802,1477l-6805 0c-3659,0 -6097,-471 -7316,-1409 -1218,-937 -1627,-2630 -1226,-5072l2248 -13716zm114602 4966l-8974 0 -827 5050 8974 0c809,0 1413,-197 1802,-594 391,-399 672,-1107 838,-2123 134,-814 56,-1404 -231,-1774 -287,-371 -813,-559 -1582,-559zm1029 -4966c1354,0 2427,64 3215,192 789,132 1435,343 1949,640 925,526 1528,1308 1815,2351 281,1043 275,2479 -25,4308 -448,2735 -1222,4665 -2317,5795 -1095,1130 -2730,1697 -4898,1697l-11384 0 -814 4967 -6119 0 3270 -19950 15308 0z"/>
   <path class="fil2" d="M766620 8155l0 8547c-11,1140 706,2159 1784,2534 2524,843 4987,1863 7367,3052 1029,505 2265,295 3069,-522l6069 -6061c3185,-3181 8343,-3181 11528,0l11537 11557c3183,3185 3183,8344 0,11527l-6055 6059c-816,803 -1027,2037 -525,3066 1196,2381 2221,4845 3069,7372 371,1080 1391,1803 2534,1793l8547 0c4504,0 8154,3651 8154,8153l0 16309c0,4504 -3651,8155 -8154,8155l-8547 0c-1141,-12 -2161,706 -2534,1782 -848,2526 -1872,4987 -3066,7369 -507,1028 -296,2265 521,3069l6062 6068c3173,3189 3173,8341 0,11528l-11536 11535c-3183,3183 -8345,3183 -11528,0l-8929 -8912c-1045,-1078 -1018,-2799 61,-3844 1051,-1019 2722,-1021 3777,-5l8925 8918c1062,1061 2782,1061 3843,0l11536 -11535c1061,-1062 1061,-2782 0,-3844l-6061 -6072c-2472,-2457 -3089,-6220 -1533,-9339 1078,-2153 2003,-4379 2769,-6662 1115,-3295 4213,-5507 7693,-5493l8547 0c1501,0 2718,-1216 2718,-2718l0 -16309c0,-1500 -1217,-2717 -2718,-2717l-8547 0c-3479,14 -6575,-2198 -7690,-5493 -767,-2285 -1693,-4511 -2772,-6665 -1549,-3118 -930,-6878 1535,-9336l6059 -6072c1061,-1062 1061,-2782 0,-3844l-11539 -11535c-1061,-1058 -2779,-1058 -3840,0l-6072 6061c-2458,2469 -6222,3087 -9339,1533 -2153,-1078 -4380,-2003 -6662,-2770 -3296,-1115 -5508,-4212 -5493,-7692l0 -8547c0,-1501 -1217,-2719 -2719,-2719l-16307 0c-1501,0 -2718,1218 -2718,2719l0 8547c14,3478 -2198,6575 -5493,7690 -2284,767 -4511,1693 -6664,2772 -3119,1551 -6880,932 -9338,-1535l-6072 -6061c-1061,-1061 -2781,-1061 -3843,0l-11535 11541c-1059,1060 -1059,2779 0,3840l8912 8931c1079,1045 1106,2766 61,3843 -1045,1079 -2765,1106 -3843,62 -23,-21 -45,-45 -66,-67l-8913 -8928c-3181,-3184 -3181,-8343 0,-11528l11533 -11535c3184,-3183 8345,-3183 11530,0l6064 6053c803,816 2037,1026 3066,524 2381,-1195 4845,-2220 7371,-3068 1081,-370 1804,-1391 1794,-2534l0 -8547c0,-4504 3650,-8155 8154,-8155l16309 0c4502,0 8153,3651 8153,8155l0 0zm0 0z"/>
   <path class="fil2" d="M775295 48402c13779,13807 13779,36163 0,49969 -1079,1043 -2799,1012 -3843,-67 -1016,-1053 -1016,-2723 0,-3777 11754,-11597 11882,-30527 284,-42281 -11597,-11754 -30528,-11881 -42282,-283 -95,94 -189,188 -283,283 -1043,1079 -2763,1109 -3843,66 -1079,-1043 -1110,-2763 -66,-3842 22,-24 44,-46 66,-68 13806,-13777 36162,-13777 49967,0l0 0zm0 0z"/>
   <path class="fil3" d="M725850 62515l0 2989c2,2253 1397,4269 3507,5061 814,310 1617,644 2405,1004 2054,942 4478,508 6077,-1088l2133 -2125c2123,-2119 5560,-2119 7681,0l7683 7681c2118,2121 2118,5558 0,7681l-2127 2134c-1594,1600 -2028,4022 -1086,6077 362,789 696,1590 1002,2405 792,2115 2811,3516 5070,3515l2989 0c3003,0 5437,2434 5437,5436l0 5436 -29898 0c-6,-901 -67,-1800 -185,-2693 -30,-259 -77,-512 -117,-764 -103,-660 -239,-1308 -402,-1946 -61,-234 -112,-470 -179,-701 -237,-826 -524,-1636 -857,-2427 -42,-96 -93,-182 -133,-272 -307,-691 -651,-1366 -1031,-2020 -127,-220 -271,-434 -393,-652 -346,-545 -715,-1088 -1104,-1604 -130,-171 -253,-350 -389,-519 -526,-657 -1089,-1282 -1684,-1876 -114,-111 -237,-209 -355,-317 -504,-479 -1029,-931 -1579,-1360 -201,-156 -407,-309 -617,-461 -542,-389 -1087,-756 -1673,-1088 -167,-98 -327,-207 -495,-302 -743,-412 -1510,-780 -2297,-1103 -183,-74 -370,-133 -543,-204 -634,-239 -1277,-451 -1936,-631 -256,-70 -510,-135 -770,-198 -708,-166 -1426,-297 -2149,-391 -160,-22 -316,-55 -476,-74 -790,-89 -1584,-137 -2381,-140 -109,0 -214,0 -323,15 -231,0 -467,25 -701,36 -698,33 -1389,95 -2071,193 -321,43 -639,89 -959,147 -488,91 -961,211 -1436,333 -2746,672 -5368,1774 -7771,3262 -449,278 -860,613 -1222,998 -1290,1384 -2446,2887 -3455,4487l-232 354c-245,394 -502,788 -721,1184 -930,1644 -1642,3404 -2116,5233l-85 325c-190,781 -338,1570 -442,2365 -17,123 -40,245 -55,368 -97,811 -148,1626 -154,2443l-29899 0 1 -5436c0,-3002 2433,-5436 5436,-5436l2990 0c2253,-1 4267,-1397 5060,-3507 309,-815 644,-1617 1003,-2405 941,-2054 508,-4477 -1087,-6076l-2125 -2135c-2120,-2122 -2120,-5559 0,-7681l7681 -7681c2121,-2118 5559,-2118 7681,0l2133 2126c1600,1594 4025,2028 6077,1086 789,-362 1591,-696 2407,-1002 2114,-791 3515,-2812 3514,-5070l-1 -2989c0,-3002 2434,-5437 5436,-5437l10872 0c3003,1 5436,2435 5436,5437l0 0zm-32617 46307c0,617 63,1217 118,1821 27,296 25,603 63,896 117,882 283,1756 500,2617 3009,11635 14878,18626 26511,15618 7658,-1981 13637,-7960 15617,-15618 449,-1776 676,-3601 680,-5435l29898 0 0 5436c0,3002 -2433,5436 -5436,5436l-2990 0c-2253,0 -4269,1398 -5061,3508 -309,814 -645,1616 -1003,2405 -941,2054 -507,4477 1088,6076l2123 2145c2118,2122 2118,5559 0,7681l-7688 7671c-2121,2118 -5558,2118 -7681,0l-2133 -2126c-1600,-1597 -4023,-2029 -6077,-1088 -789,363 -1591,696 -2405,1004 -2112,793 -3509,2812 -3507,5069l0 2990c0,3002 -2433,5436 -5436,5436l-10872 0c-3002,0 -5437,-2434 -5437,-5436l0 -2990c0,-2253 -1397,-4269 -3505,-5060 -816,-312 -1617,-645 -2406,-1004 -2055,-942 -4477,-508 -6078,1087l-2145 2122c-2121,2119 -5557,2119 -7681,0l-7681 -7681c-2118,-2121 -2118,-5558 0,-7680l2126 -2135c1595,-1600 2028,-4023 1088,-6076 -363,-789 -696,-1591 -1004,-2406 -790,-2110 -2805,-3509 -5057,-3512l-2991 0c-3002,0 -5435,-2434 -5435,-5436l0 -5436 29897 0 0 101z"/>
  </g>
 </g>
</svg>
